<svg version="1" xmlns="http://www.w3.org/2000/svg" width="133.333" height="133.333" viewBox="0 0 100.000000 100.000000"><path d="M20.5 9c-.3.6.2 1.3 1.1 1.7 1.6.6 1.6.7-.2 1.4-1.6.6-1.6.8-.2.8 2.4.1 3.3-1.8 1.2-2.6-1.6-.6-1.6-.7.2-1.4 1.6-.6 1.6-.8.2-.8-.9-.1-2 .4-2.3.9zM25.3 9.6c-.8 2.2 1.3 4.2 3 2.5 1-1 .9-1.1-.5-.6-1.3.5-1.8.2-1.8-1 0-1.1.5-1.5 1.6-1.1.8.3 1.2.2.9-.4-.9-1.5-2.5-1.2-3.2.6zM30 10.5c0 2.3.3 2.7 1 1.5.9-1.3 1.1-1.3 2 0 .7 1.2 1 .8 1-1.5s-.3-2.7-1-1.5c-.9 1.3-1.1 1.3-2 0-.7-1.2-1-.8-1 1.5zM35.3 9.6c-.8 2.1 1.3 4.2 2.8 2.7C39.4 11 38.6 8 37 8c-.6 0-1.3.7-1.7 1.6zm2.7.9c0 .8-.4 1.5-1 1.5-.5 0-1-.7-1-1.5S36.5 9 37 9c.6 0 1 .7 1 1.5zM40.3 9.6c-.8 2.1 1.3 4.2 2.8 2.7C44.4 11 43.6 8 42 8c-.6 0-1.3.7-1.7 1.6zm2.7.9c0 .8-.4 1.5-1 1.5-.5 0-1-.7-1-1.5S41.5 9 42 9c.6 0 1 .7 1 1.5zM45.1 10.2c-.1 2.3.3 2.8 2.2 2.7 1.5-.1 1.7-.3.5-.6-.9-.2-1.9-1.4-2.1-2.6-.4-1.8-.5-1.7-.6.5zM50.3 9.6c-.7 1.8 1.1 3.9 2.6 3 1.4-.9 1.4-2.6 0-2.6-.5 0-.7.4-.4 1 .3.5.1 1-.4 1-1.5 0-1.4-2.7.2-3.3.9-.4.9-.6-.1-.6-.7-.1-1.5.6-1.9 1.5zM55.1 10.7c0 1.5.3 2.2.6 1.5.3-.9.9-1 1.7-.3 1 .8 1.2.5 1.1-1.2-.1-1.2-.9-2.3-1.8-2.5-1.3-.3-1.7.4-1.6 2.5zM60.3 9.6c-.8 2.1 1.3 4.2 2.8 2.7C64.4 11 63.6 8 62 8c-.6 0-1.3.7-1.7 1.6zm2.7.9c0 .8-.4 1.5-1 1.5-.5 0-1-.7-1-1.5S61.5 9 62 9c.6 0 1 .7 1 1.5zM65.4 10.5c.1 2.8 3 2.5 3.4-.3.2-1.9.1-1.9-.4-.2-.7 2.5-2.1 2.6-2.7.2-.3-1.3-.4-1.2-.3.3zM70 10.4c0 3.1.6 3.4 1.3.6.3-1.1.1-2.3-.4-2.6-.5-.3-.9.6-.9 2zM72.7 9.3c-.3.8-.1 2 .4 2.8.6 1 .9.7.9-1.4 0-2.9-.5-3.5-1.3-1.4zM75 10.5c0 2 .4 2.6 1.8 2.3.9-.2 1.7-1.2 1.7-2.3 0-1.1-.8-2.1-1.7-2.3-1.4-.3-1.8.3-1.8 2.3zm3 0c0 .8-.4 1.5-1 1.5-.5 0-1-.7-1-1.5S76.5 9 77 9c.6 0 1 .7 1 1.5zM80.5 9c-.3.6.2 1.3 1.1 1.7 1.6.6 1.6.7-.2 1.4-1.6.6-1.6.8-.2.8 2.4.1 3.3-1.8 1.2-2.6-1.6-.6-1.6-.7.2-1.4 1.6-.6 1.6-.8.2-.8-.9-.1-2 .4-2.3.9zM14.6 28.7c-.9 2.5-1.4 4.8-1.2 5 .2.2 4 1 8.6 1.8s8.5 1.7 8.8 2c.3.3 0 2.2-.7 4.2-1.3 3.4-1.2 3.8.9 5.5 1.5 1.2 3.9 1.8 7.6 1.8H44v6c0 6.4-1.8 11.3-4.5 12.4-.9.3-5.9.6-11.1.6H19v15.9l-9.7.4-9.8.3 10.3.2L20 85V69h50v15l15.3-.2 15.2-.2-14.7-.3-14.8-.4V68h-9.2c-11.9 0-13.2-.4-15.2-4.6-1.6-3.5-1.6-3.5 1.4-6.1l3-2.5-3.1-3.9c-2.4-3.1-2.7-3.9-1.4-3.9 2.5 0 8.5-6.4 8.5-9 0-2.1.3-2.2 5.3-1.7 3.4.4 4.3.3 2.7-.3-1.4-.4-3.7-.8-5.2-.9-1.7-.1-2.9-.8-3.3-2.1-1.1-3.4-6.3-7-10.2-7C39.4 26 34 31.4 34 36.3c0 4.1 3.1 8.4 7.4 10.3l3.1 1.3-5.2.1c-7.6 0-8-.3-7.6-6 .1-2.6.7-7 1.3-9.6.6-2.5.9-4.8.7-5.1-.3-.2-16.1-3.3-17.4-3.3 0 0-.8 2.1-1.7 4.7zm9.9 2.3c.3.5-.1 1-1 1s-1.3-.5-1-1c.3-.6.8-1 1-1 .2 0 .7.4 1 1zm13.8 2.7c-.7.2-1.3 1.4-1.2 2.6 0 2.1.1 2.1.9.2l.9-2 .1 2c.1 1.8.2 1.7 1.1-.4.8-2.1 1.4-2.3 4.7-1.7 2 .3 4.9.6 6.5.6 2.2 0 2.7.4 2.7 2.6 0 3.9-5 8.4-9.5 8.4-2.7 0-4.4-.8-6.6-2.9-4.2-4.3-3.9-9.9.6-9.9.6 0 .4.2-.2.5zm10.5 22C47 57.9 45 56 45 52.1v-3.6l2.4 3c1.7 2.1 2.1 3.4 1.4 4.2zM46.5 65l1.6 3H45c-1.6 0-3-.2-3-.5 0-.7 2.3-5.5 2.6-5.5.2 0 1 1.3 1.9 3z"/><path d="M40.5 40c-1.6.7-1.7.9-.3.9.9.1 2-.4 2.3-.9.7-1.1.7-1.1-2 0zM32.5 72c-.3.6.2 1.3 1.1 1.7 1.6.6 1.6.7-.2 1.4-1.6.6-1.6.8-.2.8 2.4.1 3.3-1.8 1.2-2.6-1.6-.6-1.6-.7.2-1.4 1.6-.6 1.6-.8.2-.8-.9-.1-2 .4-2.3.9zM37.2 73.5c0 1.6.2 2.4.5 1.7.4-1 .8-1 2.1 0 1.4 1 1.5 1 .5-.2-1-1.1-1-1.7 0-2.9 1-1.4 1-1.4-.5-.3-1.3 1-1.7 1-2.1 0-.3-.7-.5 0-.5 1.7zM42.3 72.6c-.8 2.1 1.3 4.2 2.8 2.7 1.3-1.3.5-4.3-1.1-4.3-.6 0-1.3.7-1.7 1.6zm2.7.9c0 .8-.4 1.5-1 1.5-.5 0-1-.7-1-1.5s.5-1.5 1-1.5c.6 0 1 .7 1 1.5zM47.3 72.6c-.8 2.1 1.3 4.2 2.8 2.7 1.3-1.3.5-4.3-1.1-4.3-.6 0-1.3.7-1.7 1.6zm2.7.9c0 .8-.4 1.5-1 1.5-.5 0-1-.7-1-1.5s.5-1.5 1-1.5c.6 0 1 .7 1 1.5zM52.1 73.2c-.1 2.3.3 2.8 2.2 2.7 1.5-.1 1.7-.3.5-.6-.9-.2-1.9-1.4-2.1-2.6-.4-1.8-.5-1.7-.6.5z"/></svg>